<?xml version="1.0" standalone="no"?>
<!DOCTYPE svg PUBLIC "-//W3C//DTD SVG 20010904//EN"
 "http://www.w3.org/TR/2001/REC-SVG-20010904/DTD/svg10.dtd">
<svg version="1.0" xmlns="http://www.w3.org/2000/svg"
 width="204.000000pt" height="204.000000pt" viewBox="0 0 204.000000 204.000000"
 preserveAspectRatio="xMidYMid meet">
<metadata>
Created by potrace 1.11, written by Peter Selinger 2001-2013
</metadata>
<g transform="translate(0.000000,204.000000) scale(0.100000,-0.100000)"
fill="#000000" stroke="none">
<path d="M92 1013 l3 -938 935 0 935 0 0 935 0 935 -938 3 -937 2 2 -937z
m558 322 l0 -135 70 0 c63 0 70 -2 70 -20 0 -19 -7 -20 -95 -20 l-95 0 0 155
0 155 25 0 25 0 0 -135z m860 118 c0 -10 -43 -68 -95 -130 -52 -62 -95 -114
-95 -117 0 -3 43 -6 95 -6 88 0 95 -1 95 -20 0 -19 -7 -20 -130 -20 -119 0
-130 2 -130 18 0 10 43 69 95 130 52 61 95 114 95 117 0 3 -40 5 -90 5 -83 0
-90 1 -90 20 0 19 7 20 125 20 112 0 125 -2 125 -17z m-918 -699 l3 -66 85 0
85 0 3 66 c3 63 4 66 27 66 l25 0 0 -155 0 -155 -25 0 c-24 0 -25 2 -25 65 l0
65 -90 0 -90 0 0 -65 c0 -58 -2 -65 -20 -65 -19 0 -20 7 -20 155 0 147 1 155
20 155 17 0 19 -8 22 -66z m894 44 c24 -23 22 -75 -3 -99 l-20 -20 28 -29 c36
-35 37 -70 5 -107 -23 -27 -29 -28 -125 -31 l-101 -4 0 157 0 157 100 -4 c77
-2 103 -7 116 -20z"/>
<path d="M1312 738 l3 -43 54 -3 c39 -2 58 1 72 14 44 40 10 74 -72 74 l-60 0
3 -42z"/>
<path d="M1312 603 l3 -48 53 -3 c60 -3 102 16 102 48 0 31 -39 50 -103 50
l-58 0 3 -47z"/>
</g>
</svg>
